<?xml version="1.0"?>
<svg xmlns="http://www.w3.org/2000/svg" viewBox="0 0 600 148.09" width="600" height="148">
  <defs>
    
  </defs>
  <rect class="cls-1" fill="#808080" x="208.8" y="112.49" width="2.22" height="1.8"></rect>
  <rect class="cls-1" fill="#808080" x="523.59" y="112.49" width="2.22" height="1.8"></rect>
  <g>
    <rect class="cls-1" fill="#808080" x="11.21" y="112.68" width="2.42" height="11.49"></rect>
    <path class="cls-1" fill="#808080" d="M40.6,115.42c-1.51,0-2.65.59-3.36,1.51h-.04v-1.29h-2.22v8.53h2.22v-4.58c0-1.82,1.5-2.47,2.66-2.47,1.84,0,2.14,1.05,2.14,1.96v5.09h2.22v-5.79c0-2.3-1.79-2.96-3.62-2.96"></path>
    <path class="cls-1" fill="#808080" d="M75.11,118.91v-6.42h-2.23v4.37h-.03c-.66-1.03-1.93-1.44-3.27-1.44-3.25,0-4.67,2.36-4.67,4.51s1.42,4.55,4.67,4.55c1.77,0,3.11-.98,3.27-1.49h.03v1.17h2.23v-5.26ZM70.12,122.78c-2.09,0-2.88-1.4-2.88-2.85s.79-2.81,2.88-2.81,2.86,1.4,2.86,2.81-.79,2.85-2.86,2.85"></path>
    <path class="cls-1" fill="#808080" d="M99.8,124.49c1.51,0,2.64-.59,3.36-1.51h.03v1.19h2.22v-8.53h-2.22v4.68c0,1.81-1.61,2.46-2.59,2.46-1.9,0-2.2-.98-2.2-2.29v-4.86h-2.22v5.69c0,2.5,1.78,3.15,3.62,3.15"></path>
    <path class="cls-1" fill="#808080" d="M130.37,120.67c2.4.32,2.77.55,2.77,1.2,0,.81-1.21,1.1-2.32,1.1-.8,0-2.29-.19-2.35-1.48h-2.41c.08,2.61,2.96,2.99,4.78,2.99,2.64,0,4.71-.74,4.71-2.91,0-1.98-1.83-2.25-4.63-2.65-.03,0-.06-.01-.1-.02-2.04-.3-2.25-.41-2.25-1.1,0-.45.67-.98,1.93-.98.76,0,2.23.15,2.41,1.42h2.32c-.13-2.73-3.3-2.93-4.62-2.93-1.43,0-4.26.32-4.26,2.75,0,.32.05.59.13.84.39,1.2,1.69,1.47,3.89,1.77"></path>
    <path class="cls-1" fill="#808080" d="M159.79,124.36c.68,0,1.11-.05,1.71-.13v-1.61c-.53.02-1.04.04-1.59.04-.76,0-.8-.53-.8-1.51v-3.89h2.32v-1.61h-2.32v-2.64h-2.22v2.64h-1.77v1.61h1.77v4.54c0,1.61.21,2.58,2.9,2.58"></path>
    <path class="cls-1" fill="#808080" d="M184.24,124.17v-4.12c0-.45.09-.81.23-1.14.48-1.07,1.62-1.43,2.49-1.43.38,0,.8.01,1.41.21v-2.19c-.29-.04-.54-.08-.88-.08-1.71,0-2.62.91-3.22,1.88h-.03v-1.66h-2.22v8.53h2.22Z"></path>
    <polygon class="cls-1" fill="#808080" points="211.02 124.17 211.02 118.91 211.02 115.64 208.8 115.64 208.8 118.91 208.8 124.17 211.02 124.17"></polygon>
    <path class="cls-1" fill="#808080" d="M231.8,121.82c0,1.67,1.25,2.67,3.48,2.67,2.49,0,3.57-.75,4.01-1.17.06.32.22,1.1,1.67,1.1.76,0,1.14-.12,1.58-.19v-1.56c-.18.03-.51.05-.73.05-.15,0-.48-.02-.48-.48v-4.04c0-1.11-.13-2.86-4.58-2.86-2.53,0-4.18.69-4.51,2.93h2.17c.08-.95.87-1.41,2.33-1.41,1.28,0,2.41.24,2.41,1.22,0,.48-.2.67-1.51.86-.5.07-1.14.14-2.01.23-1.42.13-3.83.33-3.83,2.69M239.1,119.92v.82c0,1.88-2.01,2.33-3.2,2.33-.76,0-1.78-.21-1.78-1.33,0-.73.4-1.09,2.07-1.29,1.58-.17,2.27-.25,2.91-.53"></path>
    <polygon class="cls-1" fill="#808080" points="265.06 124.17 265.06 118.91 265.06 112.49 262.84 112.49 262.84 118.91 262.84 124.17 265.06 124.17"></polygon>
    <polygon class="cls-1" fill="#808080" points="313.73 124.17 313.73 118.91 313.73 115.54 313.77 115.54 316.45 118.91 320.65 124.17 323.37 124.17 323.37 118.91 323.37 112.68 321.05 112.68 321.05 118.91 321.05 121.31 321.02 121.31 319.12 118.91 314.19 112.68 311.42 112.68 311.42 118.91 311.42 124.17 313.73 124.17"></polygon>
    <path class="cls-1" fill="#808080" d="M349.72,124.49c3.25,0,4.41-1.88,4.89-2.83h-2.41c-.43.7-1.08,1.22-2.54,1.22-2.21,0-2.85-1.46-2.9-2.42h8.04v-.31c0-.42-.06-.84-.14-1.24-.43-1.97-1.94-3.59-5.08-3.59-2.62,0-4.55,1.36-5.02,3.59-.07.34-.11.7-.11,1.07,0,2.27,1.43,4.5,5.28,4.5M349.61,116.83c1.06,0,2.48.51,2.83,2.07.01.06.05.08.05.14h-5.73c.01-.06.04-.09.06-.14.42-1.6,1.79-2.07,2.78-2.07"></path>
    <path class="cls-1" fill="#808080" d="M379.21,124.36c.67,0,1.11-.05,1.7-.13v-1.61c-.53.02-1.04.04-1.59.04-.76,0-.81-.53-.81-1.51v-3.89h2.32v-1.61h-2.32v-2.64h-2.22v2.64h-1.76v1.61h1.76v4.54c0,1.61.21,2.58,2.91,2.58"></path>
    <polygon class="cls-1" fill="#808080" points="406.34 124.17 408.18 118.91 408.42 118.25 408.44 118.25 408.68 118.91 410.52 124.17 413.03 124.17 415.02 118.91 416.27 115.64 413.85 115.64 412.71 118.91 411.66 121.88 411.63 121.88 410.66 118.91 409.59 115.64 407.27 115.64 406.2 118.91 405.22 121.88 405.19 121.88 404.16 118.91 403 115.64 400.59 115.64 401.83 118.91 403.83 124.17 406.34 124.17"></polygon>
    <path class="cls-1" fill="#808080" d="M441.41,124.49c3.81,0,5.27-2.23,5.27-4.58,0-.33-.04-.67-.1-.99-.37-1.95-1.9-3.59-5.17-3.59s-4.8,1.64-5.17,3.59c-.06.33-.1.66-.1.99,0,2.35,1.46,4.58,5.27,4.58M441.41,117.02c1.65,0,2.5.83,2.81,1.88.09.32.15.66.15.99,0,1.48-.8,2.88-2.96,2.88s-2.96-1.4-2.96-2.88c0-.34.06-.67.15-.99.31-1.05,1.15-1.88,2.81-1.88"></path>
    <path class="cls-1" fill="#808080" d="M469.61,124.17v-4.12c0-.45.09-.81.23-1.14.48-1.07,1.62-1.43,2.49-1.43.38,0,.8.01,1.42.21v-2.19c-.29-.04-.55-.08-.89-.08-1.7,0-2.62.91-3.22,1.88h-.03v-1.66h-2.22v8.53h2.22Z"></path>
    <polygon class="cls-1" fill="#808080" points="496.34 124.17 496.34 121.42 497.74 120.28 500.75 124.17 503.75 124.17 499.51 118.91 499.47 118.86 503.41 115.64 500.27 115.64 496.5 118.91 496.34 119.05 496.34 118.91 496.34 112.49 494.12 112.49 494.12 118.91 494.12 124.17 496.34 124.17"></polygon>
    <rect class="cls-1" fill="#808080" x="523.59" y="115.64" width="2.22" height="8.53"></rect>
    <path class="cls-1" fill="#808080" d="M552.57,115.42c-1.51,0-2.64.59-3.36,1.51h-.04v-1.29h-2.22v8.53h2.22v-4.58c0-1.82,1.5-2.47,2.65-2.47,1.84,0,2.14,1.05,2.14,1.96v5.09h2.22v-5.79c0-2.3-1.79-2.96-3.61-2.96"></path>
    <path class="cls-1" fill="#808080" d="M585.1,116.86h-.04c-.51-.89-1.79-1.44-3.5-1.44-3.29,0-4.73,2.15-4.73,4.34,0,3.17,2.49,4.31,4.75,4.31,1.3,0,2.41-.35,3.48-1.37h.05v1.03c0,1.11-.38,2.46-2.92,2.46-1.34,0-2.39-.17-2.62-1.27h-2.31c.2,2.21,2.37,2.78,5.01,2.78,3.77,0,5.06-1.8,5.06-3.83v-8.26h-2.21v1.25ZM582.24,122.36c-2.34,0-3.1-1.38-3.1-2.63,0-1.53,1.24-2.61,2.9-2.61,1.14,0,3.06.53,3.06,2.58,0,1.58-1.18,2.67-2.87,2.67"></path>
  </g>
  <g>
    <rect class="cls-2" fill="#0090d0" x="335.21" y="88.64" width="10.8" height="12.4"></rect>
    <rect class="cls-2" fill="#0090d0" x="283.25" y="88.64" width="10.8" height="12.4"></rect>
    <rect class="cls-2" fill="#0090d0" x="231.41" y="88.64" width="10.92" height="12.4"></rect>
    <polygon class="cls-2" fill="#0090d0" points="93.98 20.39 83.19 20.39 83.24 29.54 83.29 38.15 83.53 85.91 21.84 20.39 10.26 20.39 10.26 99.72 21.05 99.72 20.83 34.1 82.97 99.72 93.98 99.72 93.98 48.15 93.98 39.59 93.98 20.39"></polygon>
    <path class="cls-2" fill="#0090d0" d="M175.91,69.39c-.9-7.19-4.5-11.91-6.18-14.05-9.11-11.57-22.81-12.25-27.53-12.25-3.15,0-5.62.34-6.85.56-4.5.67-19.1,3.48-24.61,17.98-1.68,4.5-1.9,8.54-1.9,10.23.11,19.67,15.84,29.55,33.6,29.55,9.1,0,15.96-2.47,18.99-3.94,1.68-.78,7.3-3.7,10.79-8.76,1.13-1.57,2.02-3.25,2.81-4.94l-10.23-2.81c-1.13,2.03-1.8,3.37-3.37,5.06-4.5,4.83-11.02,6.86-17.53,6.86-9.55,0-15.62-4.16-18.32-6.75-3.93-3.7-4.95-7.3-5.74-12.59h56.3c0-1.35,0-2.7-.23-4.16M120.17,65.57c1.01-2.47,1.24-2.81,2.14-4.16,4.61-7.3,12.25-10.34,20.57-10.34,3.6,0,5.84.45,7.3.9,2.92.9,4.95,2.14,5.85,2.7,2.7,1.8,5.73,4.38,8.09,10.9h-43.94Z"></path>
    <path class="cls-2" fill="#0090d0" d="M202.1,25.9h-10.56v18.99h-9.55v7.31h9.33v32.36c0,6.86.45,9.78,3.14,12.48,3.15,3.04,7.98,3.49,12.03,3.49,3.59,0,7.08-.34,10.56-.79l.11-9.43c-1.01.11-4.38.78-7.75.78-5.73,0-7.08-2.36-7.42-5.28-.23-1.91-.23-3.6-.23-4.27v-29.33h15.62v-7.31h-15.28v-18.99Z"></path>
  </g>
  <g>
    <path class="cls-1" fill="#808080" d="M242.33,72.84c0-3.41,0-6.25,1.59-9.32,1.48-2.61,3.53-4.21,4.32-4.78,6.48-4.89,13.98-5.34,16.6-5.34s14.55.11,17.62,10.91c.68,2.62.79,5.46.79,8.19v10.22h10.8v-10.56c0-4.89.46-6.94,1.59-9.1,2.16-4.09,8.98-9.66,20.47-9.66,10.35,0,15.8,4.77,17.62,8.76,1.59,3.41,1.48,7.16,1.48,10.8v9.77h10.8v-11.58c0-6.71-.34-9.44-1.59-12.62-4.21-10.57-16.82-14.32-27.17-14.32-11.48,0-18.76,3.64-22.51,6.25-1.71,1.25-3.07,2.5-4.44,3.98-2.27-2.84-3.07-3.64-4.66-4.89-6.71-5.12-16.71-5.23-18.76-5.23-10,0-17.17,3.3-20.35,5.35-1.02.79-2.16,1.59-4.2,3.52v-7.61h-10.92v37.16h10.92v-9.88Z"></path>
    <path class="cls-1" fill="#808080" d="M422.72,90.77c-.46-1.48-.46-3.64-.46-7.18v-20.29c0-4.22,0-7.98-2.74-11.63-3.3-4.44-9.12-5.7-10.6-6.04-6.39-1.6-14.25-1.71-15.85-1.71-9.8,0-16.76,1.48-20.41,2.96-4.11,1.71-6.16,4.22-7.18,5.7-1.36,2.05-2.4,5.02-2.51,5.48l10.94,1.02c1.14-2.05,1.48-2.51,2.51-3.31,4.44-3.54,11.97-3.99,17.21-3.99,6.61,0,11.17,1.03,13.57,2.28,5.13,2.74,4.9,7.53,4.9,12.43l-15.85.11c-13.11.12-21.77.23-27.13,2.62-2.96,1.25-9.8,5.35-9.8,14.94,0,4.33,1.48,8.21,4.33,11.51,3.88,4.33,8.55,6.16,14.14,7.07,1.02.12,4.44.57,7.86.57,12.43,0,20.18-3.99,23.94-7.64,1.37-1.25,2.29-2.74,2.62-3.3.46,4.1,1.25,9.46,10.72,9.46,3.19,0,6.38-.34,9.57-.57v-7.53c-2.05.23-2.97.34-3.99.34-3.88,0-5.24-1.6-5.81-3.31M410.18,84.05c-4.45,8.21-14.48,9.92-16.75,10.26-.69.11-4.22.69-7.19.69-11.05,0-16.07-5.47-16.07-10.95,0-4.44,3.42-6.61,4.68-7.18,3.53-1.71,8.55-1.93,16.98-1.93h20.41c-.12,1.59,0,5.24-2.05,9.12"></path>
    <path class="cls-1" fill="#808080" d="M497.62,72.08c-3.53-2.28-7.64-3.19-16.19-3.88-11.74-1.03-22.23-1.37-26.1-3.65-2.28-1.26-2.74-3.31-2.74-4.33,0-1.26.34-2.74,2.39-4.33,2.96-2.16,7.86-3.31,15.73-3.31,3.42,0,14.59.23,23.71,6.5l9.46-5.25c-1.37-1.37-3.08-2.74-6.84-4.78-7.75-4.11-16.88-5.59-25.54-5.59-1.14,0-14.24,0-22,3.99-5.35,2.73-8.89,7.52-8.89,13.68,0,4.33,1.83,8.21,5.24,10.71,4.11,2.96,9.47,3.88,14.25,4.45,13.56,1.48,24.05,1.13,28.96,3.76,2.96,1.48,3.53,3.65,3.53,5.13,0,2.85-2.05,5.01-4.44,6.27-5.13,2.74-15.16,2.74-15.39,2.74-2.63,0-13.57-.23-22.34-4.79-2.51-1.37-5.13-3.42-5.7-3.88l-9.34,6.16c12.88,11.63,34.2,11.63,37.96,11.63.46,0,22.23.8,28.96-11.17,1.71-3.07,1.83-6.38,1.83-7.64,0-5.01-2.16-9.57-6.5-12.42"></path>
    <polygon class="cls-1" fill="#808080" points="553.14 67.52 581.07 45.64 564.32 45.64 529.32 74.47 529.32 20.78 518.26 20.78 518.26 101.26 529.32 101.26 529.32 86.11 544.59 74.36 573.77 101.26 589.74 101.26 553.14 67.52"></polygon>
  </g>
</svg>